<?xml version="1.0" standalone="no"?>
<!DOCTYPE svg PUBLIC "-//W3C//DTD SVG 20010904//EN"
 "http://www.w3.org/TR/2001/REC-SVG-20010904/DTD/svg10.dtd">
<svg version="1.0" xmlns="http://www.w3.org/2000/svg"
 width="74.000000pt" height="74.000000pt" viewBox="0 0 74.000000 74.000000"
 preserveAspectRatio="xMidYMid meet">
<metadata>
Created by potrace 1.11, written by Peter Selinger 2001-2013
</metadata>
<g transform="translate(0.000000,74.000000) scale(0.100000,-0.100000)"
fill="#000000" stroke="none">
<path d="M326 689 c4 -7 1 -10 -7 -7 -37 13 -203 -76 -219 -117 -3 -5 -11 -18
-20 -28 -8 -10 -15 -21 -15 -25 0 -4 -5 -14 -10 -22 -5 -8 -11 -23 -12 -32 -6
-36 -8 -43 -18 -50 -20 -14 6 -20 87 -20 46 0 89 -6 97 -12 11 -8 13 -8 8 0
-5 8 13 11 59 10 36 -1 68 2 70 6 5 7 6 96 5 239 -1 42 -5 58 -17 63 -9 4 -13
2 -8 -5z"/>
<path d="M410 691 c0 -7 -4 -10 -9 -7 -12 8 -19 -36 -10 -62 5 -12 5 -23 1
-26 -4 -2 -5 -51 -2 -108 5 -93 7 -103 24 -100 13 2 16 -1 10 -10 -6 -10 -5
-11 7 -1 12 10 18 10 29 0 10 -9 11 -9 6 1 -5 8 0 12 13 12 12 0 21 -6 21 -12
0 -9 3 -9 9 1 8 13 12 13 27 0 11 -9 15 -9 10 -1 -4 7 -1 12 9 12 10 0 13 -5
9 -12 -6 -10 -5 -10 7 -2 19 15 71 15 62 0 -4 -6 1 -5 10 3 14 11 20 11 34 0
11 -10 14 -10 9 -1 -4 7 -1 12 9 12 13 0 15 7 11 35 -9 53 -43 115 -90 160
-52 52 -81 70 -137 86 -24 7 -50 17 -56 22 -9 6 -13 5 -13 -2z"/>
<path d="M95 361 c6 -11 3 -13 -19 -7 -16 4 -26 2 -26 -4 0 -6 -5 -8 -11 -4
-9 5 -10 -2 -5 -22 3 -16 9 -40 12 -54 3 -13 9 -29 15 -36 5 -6 5 -15 1 -19
-4 -5 -1 -5 6 -1 6 4 12 3 12 -3 0 -31 128 -139 158 -133 6 2 12 -1 12 -5 0
-8 15 -12 58 -15 6 -1 12 -5 12 -10 0 -4 8 -3 18 3 15 9 17 27 14 152 -1 84
-6 143 -12 145 -6 2 -7 9 -3 15 4 7 -1 6 -10 -2 -14 -11 -17 -11 -17 0 -1 10
-4 9 -14 -3 -7 -10 -16 -15 -19 -11 -4 3 -23 6 -44 5 -20 -1 -43 4 -52 11 -12
10 -13 9 -7 -1 9 -16 -52 -14 -73 2 -12 9 -13 8 -6 -3z"/>
<path d="M407 351 c-20 -6 -26 -23 -17 -47 5 -12 6 -24 3 -28 -9 -9 -3 -220 8
-231 6 -5 9 -5 9 1 0 6 6 11 13 11 6 0 26 4 42 8 17 3 36 7 43 7 6 1 12 5 12
10 0 4 7 8 15 8 17 0 150 129 141 137 -3 3 1 15 9 27 8 11 15 31 15 43 0 13 5
23 11 23 16 0 -14 26 -39 34 -15 5 -22 3 -22 -6 0 -8 -3 -9 -8 -3 -7 9 -208
15 -235 6z"/>
</g>
</svg>
